<?xml version="1.0" standalone="no"?>
<!DOCTYPE svg PUBLIC "-//W3C//DTD SVG 20010904//EN"
 "http://www.w3.org/TR/2001/REC-SVG-20010904/DTD/svg10.dtd">
<svg version="1.0" xmlns="http://www.w3.org/2000/svg"
 width="512.000000pt" height="512.000000pt" viewBox="0 0 512.000000 512.000000"
 preserveAspectRatio="xMidYMid meet">

<g transform="translate(0.000000,512.000000) scale(0.100000,-0.100000)"
fill="#000000" stroke="none">
<path d="M2515 5060 c-4 -6 -46 -30 -93 -54 -48 -24 -130 -66 -182 -93 -118
-63 -210 -110 -230 -117 -8 -3 -22 -10 -30 -15 -8 -5 -22 -12 -30 -15 -8 -4
-28 -15 -45 -26 -16 -11 -36 -22 -42 -25 -7 -3 -19 -7 -25 -10 -7 -3 -44 -23
-83 -44 -38 -22 -131 -70 -205 -108 -74 -37 -137 -70 -140 -73 -5 -5 -59 -33
-270 -142 -74 -38 -139 -74 -145 -79 -5 -5 -17 -9 -26 -9 -10 0 -19 -4 -21 -8
-1 -4 -48 -31 -103 -59 -55 -28 -120 -62 -145 -75 l-45 -25 -6 -344 c-4 -189
-12 -855 -19 -1480 -14 -1237 -16 -1165 38 -1319 36 -100 141 -241 208 -277
102 -55 137 -69 204 -81 141 -27 303 -8 416 49 12 6 32 9 45 7 20 -2 25 -10
30 -48 9 -65 35 -135 75 -209 81 -147 195 -242 379 -314 71 -27 367 -37 413
-13 17 9 38 16 46 16 8 0 61 23 118 51 124 61 128 63 153 77 11 7 27 15 35 18
8 3 22 10 30 15 8 5 53 28 100 52 47 24 147 76 222 115 76 39 148 77 160 83
13 7 30 16 38 20 8 4 56 29 105 54 97 50 115 60 143 74 9 5 80 42 157 81 183
93 298 155 339 183 153 104 238 229 264 387 7 42 15 514 22 1320 6 690 13
1292 15 1336 4 68 2 83 -11 88 -9 3 -58 6 -110 6 -68 0 -94 -3 -94 -12 0 -7
-3 -148 -5 -313 -3 -165 -10 -766 -16 -1335 -10 -998 -11 -1037 -30 -1097 -15
-47 -34 -77 -73 -118 -28 -30 -59 -55 -68 -55 -8 0 -21 -7 -28 -15 -9 -11 -34
-15 -101 -15 -78 0 -96 4 -151 30 -104 51 -147 105 -179 227 -18 70 -19 98
-14 382 3 168 10 761 15 1316 5 556 11 1100 12 1210 l2 200 -123 5 c-67 3
-128 2 -134 -2 -9 -4 -13 -138 -15 -510 -1 -276 -7 -842 -12 -1256 -9 -635
-12 -758 -25 -782 -8 -16 -15 -35 -15 -42 0 -22 -40 -91 -74 -126 -17 -19 -53
-45 -79 -58 -43 -22 -62 -25 -157 -25 -102 0 -111 1 -170 32 -68 36 -112 81
-154 160 -58 105 -56 47 -41 1474 21 1912 20 1759 2 1763 -8 2 -18 -2 -22 -8z
m-269 -837 c-13 -686 -27 -2315 -20 -2359 23 -155 135 -307 275 -372 32 -15
59 -30 59 -34 0 -3 -44 -28 -97 -56 -54 -27 -179 -91 -278 -142 -99 -51 -247
-128 -330 -170 -82 -43 -203 -104 -267 -137 -142 -74 -230 -97 -355 -96 -187
2 -279 82 -318 277 -15 73 -16 174 -6 1110 6 567 14 1171 18 1341 l7 310 285
143 c157 78 336 166 396 196 232 114 589 296 599 306 5 5 16 10 24 10 11 0 13
-52 8 -327z m979 -2800 c24 -166 51 -241 119 -337 46 -65 126 -127 188 -148
41 -13 60 -30 50 -43 -4 -6 -248 -137 -542 -292 -598 -314 -645 -333 -795
-334 -127 0 -190 24 -271 105 -37 37 -73 86 -93 127 -39 80 -70 221 -52 242 6
8 89 54 184 102 94 48 177 91 182 95 6 4 96 51 200 105 105 54 235 121 290
150 55 29 181 94 280 145 99 51 189 99 200 107 35 24 54 16 60 -24z"/>
</g>
</svg>
